<svg width="262.7777798436798" height="80.88888992183988" viewBox="0 0 262.7777798436798 80.88888992183988" class="css-1j8o68f"><defs id="SvgjsDefs1001"></defs><g id="SvgjsG1007" featurekey="G09qjj-0" transform="matrix(1.263888905028748,0,0,1.263888905028748,0,0)" fill="#ffffff"><g xmlns="http://www.w3.org/2000/svg"><g><path d="M32,64C14.355,64,0,49.645,0,32S14.355,0,32,0s32,14.355,32,32S49.645,64,32,64z M32,2C15.458,2,2,15.458,2,32    s13.458,30,30,30s30-13.458,30-30S48.542,2,32,2z"></path></g><g><path d="M32,61C16.01,61,3,47.99,3,32S16.01,3,32,3s29,13.01,29,29S47.99,61,32,61z M32,5C17.112,5,5,17.112,5,32s12.112,27,27,27    s27-12.112,27-27S46.888,5,32,5z"></path></g><g><path d="M12.201,52.799c-0.256,0-0.512-0.098-0.707-0.293c-0.391-0.391-0.391-1.023,0-1.414l39.598-39.598    c0.391-0.391,1.023-0.391,1.414,0s0.391,1.023,0,1.414L12.908,52.506C12.713,52.701,12.457,52.799,12.201,52.799z"></path></g><g><g><path d="M32,40.995c-0.553,0-1-0.447-1-1V19c0-0.553,0.447-1,1-1s1,0.447,1,1v20.995C33,40.548,32.553,40.995,32,40.995z"></path></g><g><path d="M32,20c-2.206,0-4-1.794-4-4s1.794-4,4-4s4,1.794,4,4S34.206,20,32,20z M32,14c-1.103,0-2,0.897-2,2s0.897,2,2,2     s2-0.897,2-2S33.103,14,32,14z"></path></g><g><path d="M40,48.985c-4.963,0-9-4.037-9-9c0-0.553,0.447-1,1-1s1,0.447,1,1c0,3.859,3.141,7,7,7s7-3.141,7-7c0-0.553,0.447-1,1-1     s1,0.447,1,1C49,44.948,44.963,48.985,40,48.985z"></path></g><g><path d="M24,48.985c-4.963,0-9-4.037-9-9c0-0.553,0.447-1,1-1s1,0.447,1,1c0,3.859,3.141,7,7,7s7-3.141,7-7c0-0.553,0.447-1,1-1     s1,0.447,1,1C33,44.948,28.963,48.985,24,48.985z"></path></g><g><path d="M16,40.985c-0.553,0-1-0.447-1-1v-6.984c0-0.553,0.447-1,1-1s1,0.447,1,1v6.984C17,40.538,16.553,40.985,16,40.985z"></path></g><g><path d="M20,38.001c-0.256,0-0.512-0.098-0.707-0.293l-4-4c-0.391-0.391-0.391-1.023,0-1.414s1.023-0.391,1.414,0l4,4     c0.391,0.391,0.391,1.023,0,1.414C20.512,37.903,20.256,38.001,20,38.001z"></path></g><g><path d="M48,40.985c-0.553,0-1-0.447-1-1v-6.984c0-0.553,0.447-1,1-1s1,0.447,1,1v6.984C49,40.538,48.553,40.985,48,40.985z"></path></g><g><path d="M44,38.001c-0.256,0-0.512-0.098-0.707-0.293c-0.391-0.391-0.391-1.023,0-1.414l4-4c0.391-0.391,1.023-0.391,1.414,0     s0.391,1.023,0,1.414l-4,4C44.512,37.903,44.256,38.001,44,38.001z"></path></g></g></g></g><g id="SvgjsG1008" featurekey="0yvIkK-0" transform="matrix(1.713021905239489,0,0,1.713021905239489,97.67673761002362,14.995951812014985)" fill="#ffffff"><path d="M6.32 12.08 q1.28 0 2.1 -0.63 t0.84 -1.87 q0 -1.16 -0.82 -1.85 t-2.18 -0.69 l-3 0 l0 5.04 l3.06 0 z M5.98 5.84 q2.16 0 3.36 0.96 t1.24 2.78 q0 1.7 -1.16 2.69 t-3.02 1.01 l-3.14 0 l0 6.72 l-1.32 0 l0 -14.16 l4.04 0 z M17.2 10.52 q0.34 0 0.7 0.1 l-0.14 1.18 q-0.22 -0.08 -0.48 -0.08 q-1.46 0 -2.23 0.9 t-0.77 2.34 l0 5.04 l-1.2 0 l0 -6.74 q0 -0.2 -0.1 -2.5 l1.2 0 q0.04 1.38 0.08 1.62 q1.04 -1.86 2.94 -1.86 z M19.94 10.76 l1.2 0 l0 9.24 l-1.2 0 l0 -9.24 z M20.54 6.199999999999999 q0.4 0 0.65 0.26 t0.25 0.64 t-0.25 0.64 t-0.65 0.26 q-0.38 0 -0.64 -0.26 t-0.26 -0.64 t0.26 -0.64 t0.64 -0.26 z M28.94 10.52 q1.02 0 1.75 0.52 t1.03 1.48 q0.4 -0.96 1.26 -1.48 t1.9 -0.52 q3.5 0 3.5 3.92 l0 5.56 l-1.2 0 l0 -5.5 q0 -2.88 -2.32 -2.9 q-1.4 0 -2.1 0.92 t-0.7 2.38 l0 5.1 l-1.2 0 l0 -5.62 q0 -1.26 -0.48 -2.01 t-1.46 -0.77 q-1.44 0 -2.3 1.01 t-0.88 2.81 l0 4.58 l-1.2 0 l0 -6.74 q-0.02 -0.68 -0.1 -2.5 l1.2 0 q0.04 1.48 0.08 1.62 l0.06 0 q0.4 -0.86 1.28 -1.36 t1.88 -0.5 z M42.260000000000005 15.379999999999999 q0 1.66 1.04 2.72 t2.62 1.06 q1.64 0 2.65 -1.08 t1.01 -2.7 q0 -1.6 -1 -2.68 t-2.68 -1.1 q-1.62 0 -2.62 1.08 t-1.02 2.7 z M45.92 10.52 q2.12 0 3.48 1.38 t1.38 3.48 q0 2.14 -1.39 3.49 t-3.47 1.37 q-2.18 -0.02 -3.51 -1.4 t-1.35 -3.46 q0 -2.14 1.37 -3.49 t3.49 -1.37 z M54.14000000000001 8.1 l1.2 0 l0 2.66 l2.64 0 l0 1.08 l-2.64 0 l0 6.04 q0 0.58 0.34 0.93 t0.94 0.35 q0.66 0 1.36 -0.32 l0.1 1.08 q-0.9 0.32 -1.58 0.32 q-1.18 0 -1.77 -0.66 t-0.59 -1.7 l0 -6.04 l-2 0 l0 -1.08 l2 0 l0 -2.66 z M60.80000000000001 15.379999999999999 q0 1.66 1.04 2.72 t2.62 1.06 q1.64 0 2.65 -1.08 t1.01 -2.7 q0 -1.6 -1 -2.68 t-2.68 -1.1 q-1.62 0 -2.62 1.08 t-1.02 2.7 z M64.46000000000001 10.52 q2.12 0 3.48 1.38 t1.38 3.48 q0 2.14 -1.39 3.49 t-3.47 1.37 q-2.18 -0.02 -3.51 -1.4 t-1.35 -3.46 q0 -2.14 1.37 -3.49 t3.49 -1.37 z M72.82000000000001 15.379999999999999 q0 1.58 1.12 2.66 t2.74 1.12 q1.62 0 2.63 -1.07 t1.03 -2.71 q0 -1.6 -1 -2.68 t-2.68 -1.1 q-1.62 0 -2.72 1.1 t-1.12 2.68 z M76.68 10.52 q2.12 0 3.48 1.37 t1.38 3.49 q0 2.12 -1.36 3.48 t-3.5 1.38 q-1.18 0 -2.19 -0.5 t-1.51 -1.36 l-0.04 0 l0 6.18 l-1.2 0 l0 -13.8 l1.2 0 l0 1.62 l0.04 0 q0.48 -0.84 1.5 -1.35 t2.2 -0.51 z M84.42 10.76 l1.2 0 l0 9.24 l-1.2 0 l0 -9.24 z M85.02000000000001 6.199999999999999 q0.4 0 0.65 0.26 t0.25 0.64 t-0.25 0.64 t-0.65 0.26 q-0.38 0 -0.64 -0.26 t-0.26 -0.64 t0.26 -0.64 t0.64 -0.26 z M89.8 17.44 q0 0.76 0.61 1.24 t1.51 0.48 q1.62 0 2.41 -0.85 t0.79 -2.31 l0 -0.64 l-1.44 0 q-1.84 0 -2.86 0.56 t-1.02 1.52 z M92.52 10.52 q1.86 0 2.76 0.86 t0.92 2.4 l0 2.74 q0 2.24 0.18 3.48 l-1.12 0 q-0.12 -0.62 -0.12 -1.5 l-0.04 0 q-1 1.74 -3.22 1.74 q-1.5 0 -2.38 -0.74 t-0.9 -2 q0 -1.54 1.33 -2.32 t3.71 -0.78 l1.48 0 l0 -0.54 q0 -1.14 -0.7 -1.7 t-1.9 -0.56 q-1.6 0 -2.82 1.04 l-0.7 -0.82 q0.66 -0.64 1.63 -0.97 t1.89 -0.33 z"></path></g></svg>